<?xml version="1.0" encoding="utf-8"?>
<!-- Generator: Adobe Illustrator 26.0.2, SVG Export Plug-In . SVG Version: 6.00 Build 0)  -->
<svg version="1.1" id="Layer_1" xmlns="http://www.w3.org/2000/svg" xmlns:xlink="http://www.w3.org/1999/xlink" x="0px" y="0px"
	 viewBox="0 0 595.3 841.9" style="enable-background:new 0 0 595.3 841.9;" xml:space="preserve">
<style type="text/css">
	.st0{fill:#FE4800;}
</style>
<path class="st0" d="M206.5,257L206.5,257c7.5,0,13.5-6,13.5-13.5v0c0-7.5-6-13.5-13.5-13.5h0c-7.5,0-13.5,6-13.5,13.5v0
	C193,251,199,257,206.5,257z"/>
<path class="st0" d="M304.9,257L304.9,257c7.5,0,13.5-6,13.5-13.5v0c0-7.5-6-13.5-13.5-13.5h0c-7.5,0-13.5,6-13.5,13.5v0
	C291.4,251,297.4,257,304.9,257z"/>
<path class="st0" d="M403.3,257L403.3,257c7.5,0,13.5-6,13.5-13.5v0c0-7.5-6-13.5-13.5-13.5h0c-7.5,0-13.5,6-13.5,13.5v0
	C389.8,251,395.8,257,403.3,257z"/>
<path class="st0" d="M501.6,257L501.6,257c7.5,0,13.5-6,13.5-13.5v0c0-7.5-6-13.5-13.5-13.5h0c-7.5,0-13.5,6-13.5,13.5v0
	C488.1,251,494.2,257,501.6,257z"/>
<path class="st0" d="M206.5,354.7L206.5,354.7c7.5,0,13.5-6,13.5-13.5v0c0-7.5-6-13.5-13.5-13.5h0c-7.5,0-13.5,6-13.5,13.5v0
	C193,348.6,199,354.7,206.5,354.7z"/>
<path class="st0" d="M304.9,354.7L304.9,354.7c7.5,0,13.5-6,13.5-13.5v0c0-7.5-6-13.5-13.5-13.5h0c-7.5,0-13.5,6-13.5,13.5v0
	C291.4,348.6,297.4,354.7,304.9,354.7z"/>
<path class="st0" d="M403.3,354.7L403.3,354.7c7.5,0,13.5-6,13.5-13.5v0c0-7.5-6-13.5-13.5-13.5h0c-7.5,0-13.5,6-13.5,13.5v0
	C389.8,348.6,395.8,354.7,403.3,354.7z"/>
<path class="st0" d="M501.6,354.7L501.6,354.7c7.5,0,13.5-6,13.5-13.5v0c0-7.5-6-13.5-13.5-13.5h0c-7.5,0-13.5,6-13.5,13.5v0
	C488.1,348.6,494.2,354.7,501.6,354.7z"/>
<path class="st0" d="M206.5,452.3L206.5,452.3c7.5,0,13.5-6,13.5-13.5v0c0-7.5-6-13.5-13.5-13.5h0c-7.5,0-13.5,6-13.5,13.5v0
	C193,446.3,199,452.3,206.5,452.3z"/>
<path class="st0" d="M304.9,452.3L304.9,452.3c7.5,0,13.5-6,13.5-13.5v0c0-7.5-6-13.5-13.5-13.5h0c-7.5,0-13.5,6-13.5,13.5v0
	C291.4,446.3,297.4,452.3,304.9,452.3z"/>
<path class="st0" d="M403.3,452.3L403.3,452.3c7.5,0,13.5-6,13.5-13.5v0c0-7.5-6-13.5-13.5-13.5h0c-7.5,0-13.5,6-13.5,13.5v0
	C389.8,446.3,395.8,452.3,403.3,452.3z"/>
<path class="st0" d="M501.6,452.3L501.6,452.3c7.5,0,13.5-6,13.5-13.5v0c0-7.5-6-13.5-13.5-13.5h0c-7.5,0-13.5,6-13.5,13.5v0
	C488.1,446.3,494.2,452.3,501.6,452.3z"/>
<path class="st0" d="M206.5,550L206.5,550c7.5,0,13.5-6,13.5-13.5l0,0c0-7.5-6-13.5-13.5-13.5h0c-7.5,0-13.5,6-13.5,13.5l0,0
	C193,543.9,199,550,206.5,550z"/>
<path class="st0" d="M304.9,550L304.9,550c7.5,0,13.5-6,13.5-13.5l0,0c0-7.5-6-13.5-13.5-13.5h0c-7.5,0-13.5,6-13.5,13.5l0,0
	C291.4,543.9,297.4,550,304.9,550z"/>
<path class="st0" d="M403.3,550L403.3,550c7.5,0,13.5-6,13.5-13.5l0,0c0-7.5-6-13.5-13.5-13.5h0c-7.5,0-13.5,6-13.5,13.5l0,0
	C389.8,543.9,395.8,550,403.3,550z"/>
<path class="st0" d="M501.6,550L501.6,550c7.5,0,13.5-6,13.5-13.5l0,0c0-7.5-6-13.5-13.5-13.5h0c-7.5,0-13.5,6-13.5,13.5l0,0
	C488.1,543.9,494.2,550,501.6,550z"/>
<path class="st0" d="M206.5,647.7L206.5,647.7c7.5,0,13.5-6,13.5-13.5v0c0-7.5-6-13.5-13.5-13.5h0c-7.5,0-13.5,6-13.5,13.5v0
	C193,641.6,199,647.7,206.5,647.7z"/>
<path class="st0" d="M304.9,647.7L304.9,647.7c7.5,0,13.5-6,13.5-13.5v0c0-7.5-6-13.5-13.5-13.5h0c-7.5,0-13.5,6-13.5,13.5v0
	C291.4,641.6,297.4,647.7,304.9,647.7z"/>
<path class="st0" d="M403.3,647.7L403.3,647.7c7.5,0,13.5-6,13.5-13.5v0c0-7.5-6-13.5-13.5-13.5h0c-7.5,0-13.5,6-13.5,13.5v0
	C389.8,641.6,395.8,647.7,403.3,647.7z"/>
<path class="st0" d="M501.6,647.7L501.6,647.7c7.5,0,13.5-6,13.5-13.5v0c0-7.5-6-13.5-13.5-13.5h0c-7.5,0-13.5,6-13.5,13.5v0
	C488.1,641.6,494.2,647.7,501.6,647.7z"/>
</svg>
